<svg width="32" height="32" fill="none" xmlns="http://www.w3.org/2000/svg"><path d="M29.57 28.41h0l-4.007-3.997a13.184 13.184 0 003.323-8.762c0-7.298-5.936-13.234-13.234-13.234S2.417 8.353 2.417 15.65s5.937 13.235 13.235 13.235c3.041 0 5.846-1.031 8.083-2.762l4.068 4.057h0a1.251 1.251 0 001.766-1.77zM4.916 15.65c0-5.918 4.816-10.733 10.735-10.733 5.918 0 10.734 4.815 10.734 10.734S21.57 26.386 15.652 26.386c-5.92 0-10.735-4.816-10.735-10.735z" fill="#F2F2F2" stroke="#F2F2F2" stroke-width=".5"/></svg> 30.1772C30.0594 29.6884 30.057 28.8986 29.5693 28.4109ZM4.91669 15.6507C4.91669 9.73152 9.73272 4.91675 15.652 4.91675C21.57 4.91675 26.386 9.73151 26.386 15.6507C26.386 21.57 21.5699 26.3861 15.652 26.3861C9.73276 26.3861 4.91669 21.57 4.91669 15.6507Z" fill="#F2F2F2" stroke="#F2F2F2" stroke-width="0.5"/>
</svg>
