<svg id="upload" viewBox="0 0 72 72" xmlns="http://www.w3.org/2000/svg"><path fill-rule="evenodd" clip-rule="evenodd" d="M37.45 6c3.4 0 21.235 6.123 23.596 8.484 1.968 1.968 1.938 3.558 1.8 11.178-.054 3.054-.13 7.215-.13 12.975 0 20.646-23.61 28.032-24.614 28.335a2.194 2.194 0 01-.651.096c-.22 0-.438-.03-.651-.096-1.005-.303-24.615-7.689-24.615-28.335 0-5.751-.075-9.912-.13-12.966-.024-1.362-.045-2.532-.052-3.546v-1.144c.025-3.758.378-5.021 1.856-6.497C16.214 12.123 34.049 6 37.45 6zm0 4.5c-2.543 0-18.593 5.652-20.444 7.197-.546.549-.567 1.503-.45 7.89.054 3.078.129 7.26.129 13.05 0 15.603 17.166 22.53 20.763 23.805 3.594-1.281 20.769-8.247 20.769-23.805 0-5.796.075-9.981.132-13.059.114-6.381.093-7.335-.486-7.911C56.048 16.152 39.995 10.5 37.45 10.5zm11.165 17.518a2.25 2.25 0 010 3.183L36.921 42.898a2.24 2.24 0 01-1.235.633l-.355.028c-.597 0-1.17-.237-1.593-.66l-5.676-5.682a2.25 2.25 0 013.186-3.183l4.083 4.089 10.104-10.104a2.247 2.247 0 013.18 0z"/></svg>