<svg id="Icon-4" viewBox="0 0 72 72" xmlns="http://www.w3.org/2000/svg"><path fill-rule="evenodd" clip-rule="evenodd" d="M13.079 15.182c.005 0-.145.156-.334.342-.725.705-2.228 2.172-2.244 5.241-.024 4.293 2.8 12.264 16.392 25.854C40.423 60.143 48.383 63 52.684 63h.064c3.069-.015 4.533-1.52 5.24-2.244.217-.222.39-.384.514-.486 2.987-3.006 4.517-5.244 4.503-6.678-.022-1.464-1.843-3.195-4.36-5.589-.8-.762-1.67-1.59-2.589-2.508-2.378-2.373-3.557-1.968-6.15-1.056-3.584 1.257-8.505 2.967-16.148-4.68-7.657-7.65-5.944-12.564-4.69-16.149.906-2.592 1.32-3.774-1.062-6.156-.933-.93-1.77-1.812-2.54-2.622-2.38-2.502-4.096-4.31-5.55-4.332h-.024c-1.438 0-3.67 1.536-6.829 4.695a.067.067 0 01.015-.012zM52.686 67.5c-7.475 0-17.222-5.952-28.973-17.697C11.918 38.01 5.956 28.232 6 20.742c.028-4.95 2.623-7.486 3.598-8.437.05-.063.225-.234.285-.294C14.185 7.706 17.087 5.966 19.972 6c3.351.045 5.736 2.553 8.755 5.73.747.786 1.556 1.641 2.46 2.541 4.38 4.38 3.131 7.953 2.13 10.821-1.093 3.13-2.038 5.83 3.62 11.487 5.665 5.658 8.364 4.713 11.482 3.612 2.87-1.002 6.434-2.256 10.82 2.124.889.888 1.732 1.69 2.509 2.43 3.191 3.033 5.712 5.43 5.754 8.79.035 2.865-1.704 5.784-6 10.083l-1.903-1.29 1.609 1.572c-.951.975-3.483 3.573-8.436 3.6h-.084z"/></svg>