<svg id="Icon-2" viewBox="0 0 72 72" xmlns="http://www.w3.org/2000/svg"><path clip-rule="evenodd" d="M13.11 51.836c0 4.932 4.014 8.946 8.949 8.946h3.708a2.25 2.25 0 010 4.5h-3.708c-7.416 0-13.45-6.033-13.45-13.446l-.002-9.974-3.357.003a2.25 2.25 0 010-4.5l5.567-.004h.043l.042.001h51.692l.046-.001.042.001 5.568.003a2.25 2.25 0 010 4.5l-3.36-.003v9.974c0 7.413-6.033 13.446-13.449 13.446h-3.615a2.25 2.25 0 010-4.5h3.615c4.935 0 8.949-4.014 8.949-8.946v-9.974H13.107l.003 9.974zM51.44 9c7.417 0 13.45 6.033 13.45 13.443v4.542a2.25 2.25 0 01-4.5 0v-4.542c0-4.929-4.014-8.943-8.95-8.943h-3.614a2.25 2.25 0 010-4.5h3.615zM25.768 9a2.25 2.25 0 010 4.5H22.06c-4.935 0-8.949 4.014-8.949 8.943v4.542a2.25 2.25 0 01-4.5 0v-4.542C8.61 15.033 14.643 9 22.06 9h3.707z"/></svg>76 64.2738 45.576 63.0318C45.576 61.7898 46.584 60.7818 47.826 60.7818H51.441C56.376 60.7818 60.39 56.7678 60.39 51.8358V41.862H13.107L13.1097 51.8358ZM51.4407 9C58.8567 9 64.8897 15.033 64.8897 22.443V26.985C64.8897 28.227 63.8817 29.235 62.6397 29.235C61.3977 29.235 60.3897 28.227 60.3897 26.985V22.443C60.3897 17.514 56.3757 13.5 51.4407 13.5H47.8257C46.5837 13.5 45.5757 12.492 45.5757 11.25C45.5757 10.008 46.5837 9 47.8257 9H51.4407ZM25.7673 9C27.0093 9 28.0173 10.008 28.0173 11.25C28.0173 12.492 27.0093 13.5 25.7673 13.5H22.0593C17.1243 13.5 13.1103 17.514 13.1103 22.443V26.985C13.1103 28.227 12.1023 29.235 10.8603 29.235C9.6183 29.235 8.6103 28.227 8.6103 26.985V22.443C8.6103 15.033 14.6433 9 22.0593 9H25.7673Z" />
</svg>
