<svg id="Icon-5" viewBox="0 0 72 72" xmlns="http://www.w3.org/2000/svg"><path fill-rule="evenodd" clip-rule="evenodd" d="M37.124 6.001c6.768 0 12.81 4.299 15.027 10.701a2.25 2.25 0 01-1.392 2.862 2.247 2.247 0 01-2.862-1.392 11.414 11.414 0 00-10.782-7.671h-.042c-6.276 0-11.388 5.082-11.415 11.352l-.002 4.026 22.896.002c7.512 0 13.626 6.114 13.626 13.63v12.863c0 7.515-6.114 13.63-13.626 13.63H25.626C18.111 66.003 12 59.888 12 52.373V39.51c0-5.95 3.831-11.022 9.157-12.876l.001-4.73c.04-8.814 7.167-15.903 15.906-15.903h.06zm11.428 24.38H25.626c-5.034 0-9.126 4.095-9.126 9.13v12.863c0 5.034 4.092 9.13 9.126 9.13h22.926c5.031 0 9.126-4.096 9.126-9.13V39.51c0-5.034-4.095-9.129-9.126-9.129zM37.09 40.358a2.25 2.25 0 012.25 2.25v6.667a2.25 2.25 0 01-4.5 0v-6.666a2.25 2.25 0 012.25-2.25z"/></svg> 57.678 57.4081 57.678 52.3741V39.5101C57.678 34.4761 53.583 30.3811 48.552 30.3811ZM37.0899 40.3585C38.3319 40.3585 39.3399 41.3665 39.3399 42.6085V49.2745C39.3399 50.5165 38.3319 51.5245 37.0899 51.5245C35.8479 51.5245 34.8399 50.5165 34.8399 49.2745V42.6085C34.8399 41.3665 35.8479 40.3585 37.0899 40.3585Z"/>
</svg>
