<svg id="Icon-2" viewBox="0 0 72 72" xmlns="http://www.w3.org/2000/svg"><path clip-rule="evenodd" d="M13.11 51.836c0 4.932 4.014 8.946 8.949 8.946h3.708a2.25 2.25 0 010 4.5h-3.708c-7.416 0-13.45-6.033-13.45-13.446l-.002-9.974-3.357.003a2.25 2.25 0 010-4.5l5.567-.004h.043l.042.001h51.692l.046-.001.042.001 5.568.003a2.25 2.25 0 010 4.5l-3.36-.003v9.974c0 7.413-6.033 13.446-13.449 13.446h-3.615a2.25 2.25 0 010-4.5h3.615c4.935 0 8.949-4.014 8.949-8.946v-9.974H13.107l.003 9.974zM51.44 9c7.417 0 13.45 6.033 13.45 13.443v4.542a2.25 2.25 0 01-4.5 0v-4.542c0-4.929-4.014-8.943-8.95-8.943h-3.614a2.25 2.25 0 010-4.5h3.615zM25.768 9a2.25 2.25 0 010 4.5H22.06c-4.935 0-8.949 4.014-8.949 8.943v4.542a2.25 2.25 0 01-4.5 0v-4.542C8.61 15.033 14.643 9 22.06 9h3.707z"/></svg>