<svg id="Icon-6" viewBox="0 0 72 72" xmlns="http://www.w3.org/2000/svg"><path fill-rule="evenodd" clip-rule="evenodd" d="M47.726 6c9.432 0 15.768 6.459 15.768 16.071v27.588c0 9.696-6.14 16.002-15.645 16.062l-23.079.009C15.338 65.73 9 59.271 9 49.659V22.071c0-9.699 6.14-16.002 15.644-16.059L47.724 6h.002zm0 4.5l-23.067.012c-6.984.042-11.16 4.362-11.16 11.559v27.588c0 7.245 4.215 11.571 11.268 11.571l23.067-.009c6.984-.042 11.16-4.368 11.16-11.562V22.071c0-7.245-4.212-11.571-11.268-11.571zm-.579 35.921a2.25 2.25 0 010 4.5h-21.66a2.25 2.25 0 010-4.5h21.66zm0-12.56a2.25 2.25 0 010 4.5h-21.66a2.25 2.25 0 010-4.5h21.66zm-13.395-12.53a2.25 2.25 0 010 4.5h-8.266a2.25 2.25 0 010-4.5h8.265z"/></svg>