<svg id="telegram" viewBox="0 0 44 45" xmlns="http://www.w3.org/2000/svg"><path d="M22 4.42c-10.12 0-18.333 8.213-18.333 18.333S11.88 41.086 22 41.086s18.333-8.213 18.333-18.333S32.12 4.419 22 4.419zm8.507 12.466c-.275 2.897-1.467 9.937-2.072 13.182-.257 1.375-.77 1.833-1.247 1.888-1.063.092-1.87-.697-2.896-1.375-1.614-1.063-2.53-1.723-4.089-2.75-1.815-1.192-.641-1.852.404-2.915.275-.275 4.968-4.547 5.06-4.932a.368.368 0 00-.092-.33c-.11-.091-.257-.055-.385-.036-.165.036-2.732 1.741-7.737 5.115-.733.495-1.393.751-1.98.733-.66-.018-1.906-.367-2.841-.678-1.155-.367-2.054-.569-1.98-1.21.036-.33.495-.66 1.356-1.009 5.354-2.328 8.91-3.868 10.689-4.601 5.096-2.127 6.141-2.494 6.838-2.494.147 0 .495.037.715.22a.728.728 0 01.257.495c-.019.11.018.44 0 .697z"/></svg>78 16.06 25.4844 15.4734 25.4661C14.8134 25.4478 13.5667 25.0994 12.6317 24.7878C11.4767 24.4211 10.5784 24.2194 10.6517 23.5778C10.6884 23.2478 11.1467 22.9178 12.0084 22.5694C17.3617 20.2411 20.9184 18.7011 22.6967 17.9678C27.7934 15.8411 28.8384 15.4744 29.535 15.4744C29.6817 15.4744 30.03 15.5111 30.25 15.6944C30.4334 15.8411 30.4884 16.0428 30.5067 16.1894C30.4884 16.2994 30.525 16.6294 30.5067 16.8861Z"/>
</svg>
