<svg id="twitter" viewBox="0 0 44 45" xmlns="http://www.w3.org/2000/svg"><path d="M22 3.503c-10.63 0-19.25 8.62-19.25 19.25s8.62 19.25 19.25 19.25 19.25-8.62 19.25-19.25S32.63 3.503 22 3.503zm9.251 14.51c.013.202.013.413.013.62 0 6.307-4.804 13.573-13.582 13.573-2.707 0-5.217-.786-7.33-2.14.386.043.755.06 1.15.06a9.574 9.574 0 005.926-2.036 4.773 4.773 0 01-4.46-3.309c.735.108 1.396.108 2.153-.086a4.77 4.77 0 01-3.82-4.683v-.06a4.776 4.776 0 002.152.605 4.774 4.774 0 01-2.126-3.97c0-.89.232-1.702.648-2.406a13.548 13.548 0 009.84 4.988c-.674-3.244 1.75-5.87 4.662-5.87 1.375 0 2.613.577 3.485 1.505a9.424 9.424 0 003.03-1.148 4.75 4.75 0 01-2.097 2.626 9.438 9.438 0 002.75-.743c-.65.953-1.461 1.8-2.394 2.475z"/></svg>