<svg id="serch" xmlns="http://www.w3.org/2000/svg"><path fill-rule="evenodd" clip-rule="evenodd" d="M15.652 2.667c7.16 0 12.984 5.824 12.984 12.984 0 3.378-1.296 6.459-3.418 8.771l4.174 4.166a.999.999 0 01-.706 1.708 1 1 0 01-.707-.292l-4.224-4.213a12.922 12.922 0 01-8.103 2.845c-7.16 0-12.985-5.825-12.985-12.985 0-7.16 5.825-12.984 12.985-12.984zm0 2c-6.057 0-10.985 4.926-10.985 10.984 0 6.057 4.928 10.985 10.985 10.985 6.056 0 10.984-4.928 10.984-10.985 0-6.058-4.928-10.984-10.984-10.984z"/></svg>66666 15.652 2.66666ZM15.652 4.66666C9.59466 4.66666 4.66666 9.59332 4.66666 15.6507C4.66666 21.708 9.59466 26.636 15.652 26.636C21.708 26.636 26.636 21.708 26.636 15.6507C26.636 9.59332 21.708 4.66666 15.652 4.66666Z"/>
</svg>
